<svg width="226" height="115" viewBox="0 0 226 115" fill="none" xmlns="http://www.w3.org/2000/svg">
<g filter="url(#filter0_d_1_593)">
<rect x="35" y="31" width="156" height="45" rx="10" fill="#FCBD01"/>
</g>
<path d="M164.317 59.5393L173.612 48.4617M173.612 48.4617L163.833 49.3172M173.612 48.4617L174.468 58.2406" stroke="#181818" stroke-width="1.6" stroke-linecap="round" stroke-linejoin="round"/>
<path d="M52.5391 55.8594H54.2656C54.3906 56.9766 55.4766 57.7109 56.9609 57.7109C58.3828 57.7109 59.4062 56.9766 59.4062 55.9688C59.4062 55.0938 58.7891 54.5703 57.3281 54.2109L55.8672 53.8594C53.7969 53.3594 52.8359 52.3906 52.8359 50.8203C52.8359 48.875 54.5312 47.5391 56.9375 47.5391C59.3203 47.5391 60.9531 48.875 61.0078 50.8203H59.3047C59.2031 49.6953 58.2734 49.0156 56.9141 49.0156C55.5547 49.0156 54.625 49.7031 54.625 50.7031C54.625 51.5 55.2188 51.9688 56.6719 52.3281L57.9141 52.6328C60.2266 53.1797 61.1875 54.1094 61.1875 55.7578C61.1875 57.8672 59.5078 59.1875 56.8359 59.1875C54.3359 59.1875 52.6484 57.8984 52.5391 55.8594ZM63.0938 48.6094H64.7812V50.5156H66.4062V51.8516H64.7812V56.5938C64.7812 57.3281 65.1094 57.6719 65.8203 57.6719C66 57.6719 66.2891 57.6484 66.3984 57.6328V58.9688C66.2109 59.0156 65.8125 59.0547 65.4453 59.0547C63.75 59.0547 63.0938 58.4062 63.0938 56.7656V51.8516H61.9219V50.5156H63.0938V48.6094ZM70.7188 57.7344C71.9766 57.7344 72.9297 56.9297 72.9297 55.8125V55.1484L70.8672 55.2891C69.7109 55.3594 69.1094 55.7891 69.1094 56.5391C69.1094 57.2656 69.7422 57.7344 70.7188 57.7344ZM70.2656 59.0859C68.5703 59.0859 67.3984 58.0859 67.3984 56.5703C67.3984 55.0859 68.5469 54.2266 70.6406 54.0938L72.9297 53.9609V53.3047C72.9297 52.3359 72.2812 51.8047 71.1484 51.8047C70.2266 51.8047 69.5547 52.2812 69.4062 53.0156H67.8203C67.8672 51.5156 69.2891 50.4062 71.1953 50.4062C73.2656 50.4062 74.6016 51.5 74.6016 53.1797V59H72.9844V57.5859H72.9453C72.4766 58.5078 71.4219 59.0859 70.2656 59.0859ZM76.3047 59V50.5156H77.9219V51.9453H77.9531C78.2188 51 79 50.4297 80 50.4297C80.25 50.4297 80.4609 50.4531 80.5938 50.4844V52.0703C80.4531 52.0156 80.1562 51.9688 79.8203 51.9688C78.7031 51.9688 78 52.7422 78 53.9375V59H76.3047ZM82.1875 48.6094H83.875V50.5156H85.5V51.8516H83.875V56.5938C83.875 57.3281 84.2031 57.6719 84.9141 57.6719C85.0938 57.6719 85.3828 57.6484 85.4922 57.6328V58.9688C85.3047 59.0156 84.9062 59.0547 84.5391 59.0547C82.8438 59.0547 82.1875 58.4062 82.1875 56.7656V51.8516H81.0156V50.5156H82.1875V48.6094ZM90.2891 55.8594H92.0156C92.1406 56.9766 93.2266 57.7109 94.7109 57.7109C96.1328 57.7109 97.1562 56.9766 97.1562 55.9688C97.1562 55.0938 96.5391 54.5703 95.0781 54.2109L93.6172 53.8594C91.5469 53.3594 90.5859 52.3906 90.5859 50.8203C90.5859 48.875 92.2812 47.5391 94.6875 47.5391C97.0703 47.5391 98.7031 48.875 98.7578 50.8203H97.0547C96.9531 49.6953 96.0234 49.0156 94.6641 49.0156C93.3047 49.0156 92.375 49.7031 92.375 50.7031C92.375 51.5 92.9688 51.9688 94.4219 52.3281L95.6641 52.6328C97.9766 53.1797 98.9375 54.1094 98.9375 55.7578C98.9375 57.8672 97.2578 59.1875 94.5859 59.1875C92.0859 59.1875 90.3984 57.8984 90.2891 55.8594ZM100.406 59V47.2188H102.086V51.9453H102.125C102.633 50.9453 103.508 50.4219 104.805 50.4219C106.672 50.4219 107.789 51.6641 107.789 53.5781V59H106.094V53.9062C106.094 52.6406 105.461 51.875 104.219 51.875C102.898 51.875 102.102 52.7812 102.102 54.1406V59H100.406ZM113.125 59.1016C110.672 59.1016 109.109 57.4297 109.109 54.7578C109.109 52.0938 110.68 50.4062 113.125 50.4062C115.57 50.4062 117.133 52.0859 117.133 54.7578C117.133 57.4297 115.578 59.1016 113.125 59.1016ZM113.125 57.6953C114.562 57.6953 115.414 56.6094 115.414 54.7578C115.414 52.9062 114.562 51.8125 113.125 51.8125C111.688 51.8125 110.828 52.9141 110.828 54.7578C110.828 56.6094 111.688 57.6953 113.125 57.6953ZM122.867 50.4297C125.031 50.4297 126.453 52.125 126.453 54.7578C126.453 57.3828 125.039 59.0859 122.906 59.0859C121.688 59.0859 120.727 58.5469 120.219 57.6094H120.188V61.8125H118.492V50.5156H120.125V51.9219H120.164C120.641 51.0078 121.688 50.4297 122.867 50.4297ZM122.438 57.6484C123.812 57.6484 124.719 56.5156 124.719 54.7578C124.719 53.0078 123.812 51.8672 122.438 51.8672C121.094 51.8672 120.18 53.0312 120.172 54.7578C120.18 56.4922 121.086 57.6484 122.438 57.6484ZM132.18 50.4297C134.344 50.4297 135.766 52.125 135.766 54.7578C135.766 57.3828 134.352 59.0859 132.219 59.0859C131 59.0859 130.039 58.5469 129.531 57.6094H129.5V61.8125H127.805V50.5156H129.438V51.9219H129.477C129.953 51.0078 131 50.4297 132.18 50.4297ZM131.75 57.6484C133.125 57.6484 134.031 56.5156 134.031 54.7578C134.031 53.0078 133.125 51.8672 131.75 51.8672C130.406 51.8672 129.492 53.0312 129.484 54.7578C129.492 56.4922 130.398 57.6484 131.75 57.6484ZM137.18 59V50.5156H138.875V59H137.18ZM138.031 49.3047C137.484 49.3047 137.039 48.8672 137.039 48.3281C137.039 47.7734 137.484 47.3516 138.031 47.3516C138.578 47.3516 139.023 47.7734 139.023 48.3281C139.023 48.8672 138.578 49.3047 138.031 49.3047ZM140.68 59V50.5156H142.297V51.9453H142.328C142.844 50.9453 143.695 50.4219 145.008 50.4219C146.883 50.4219 147.953 51.6094 147.953 53.5625V59H146.258V53.8828C146.258 52.5938 145.664 51.875 144.422 51.875C143.141 51.875 142.375 52.7656 142.375 54.1016V59H140.68ZM153.25 57.5703C154.625 57.5703 155.539 56.4453 155.539 54.7344C155.539 53.0156 154.625 51.8672 153.25 51.8672C151.883 51.8672 151 52.9922 151 54.7344C151 56.4688 151.883 57.5703 153.25 57.5703ZM153.258 62.0547C151.219 62.0547 149.766 61.1094 149.602 59.6562H151.312C151.5 60.3125 152.289 60.7266 153.328 60.7266C154.672 60.7266 155.539 60.0234 155.539 58.9141V57.5156H155.5C155.008 58.4297 154.008 58.9766 152.805 58.9766C150.688 58.9766 149.266 57.3125 149.266 54.7266C149.266 52.1094 150.672 50.4297 152.844 50.4297C154.047 50.4297 155.031 50.9844 155.555 51.9219H155.586V50.5156H157.227V58.7812C157.227 60.8047 155.703 62.0547 153.258 62.0547Z" fill="#181818"/>
<defs>
<filter id="filter0_d_1_593" x="0" y="0" width="226" height="115" filterUnits="userSpaceOnUse" color-interpolation-filters="sRGB">
<feFlood flood-opacity="0" result="BackgroundImageFix"/>
<feColorMatrix in="SourceAlpha" type="matrix" values="0 0 0 0 0 0 0 0 0 0 0 0 0 0 0 0 0 0 127 0" result="hardAlpha"/>
<feOffset dy="4"/>
<feGaussianBlur stdDeviation="17.5"/>
<feComposite in2="hardAlpha" operator="out"/>
<feColorMatrix type="matrix" values="0 0 0 0 0.988235 0 0 0 0 0.741176 0 0 0 0 0.00392157 0 0 0 0.4 0"/>
<feBlend mode="normal" in2="BackgroundImageFix" result="effect1_dropShadow_1_593"/>
<feBlend mode="normal" in="SourceGraphic" in2="effect1_dropShadow_1_593" result="shape"/>
</filter>
</defs>
</svg>
