<svg width="480" height="19" viewBox="0 0 480 19" fill="none" xmlns="http://www.w3.org/2000/svg">
<path d="M12.4453 3.72656V15H10.8438V6.70312H10.7891L7.39062 14.9141H6.09375L2.6875 6.70312H2.63281V15H1.03906V3.72656H3.0625L6.71094 12.625H6.77344L10.4141 3.72656H12.4453ZM17.8828 7.78906C16.6641 7.78906 15.7812 8.67969 15.6875 9.98438H19.9922C19.9531 8.66406 19.1172 7.78906 17.8828 7.78906ZM19.9844 12.5156H21.6016C21.3594 14.0391 19.8672 15.1016 17.9609 15.1016C15.5 15.1016 13.9688 13.4453 13.9688 10.7891C13.9688 8.13281 15.5156 6.40625 17.8906 6.40625C20.2188 6.40625 21.6875 8.02344 21.6875 10.5938V11.1875H15.6797V11.2891C15.6797 12.7578 16.6016 13.7266 17.9922 13.7266C18.9766 13.7266 19.75 13.2578 19.9844 12.5156ZM23.0547 15V6.51562H24.6719V7.94531H24.7031C25.2188 6.94531 26.0703 6.42188 27.3828 6.42188C29.2578 6.42188 30.3281 7.60938 30.3281 9.5625V15H28.6328V9.88281C28.6328 8.59375 28.0391 7.875 26.7969 7.875C25.5156 7.875 24.75 8.76562 24.75 10.1016V15H23.0547Z" fill="#494747"/>
<path d="M84.4688 6.5L82.0391 15H80.3828L77.3438 3.72656H79.1641L81.25 12.5547H81.3125L83.6953 3.72656H85.3203L87.7109 12.5547H87.7734L89.8594 3.72656H91.6797L88.6328 15H86.9844L84.5469 6.5H84.4688ZM95.8281 15.1016C93.375 15.1016 91.8125 13.4297 91.8125 10.7578C91.8125 8.09375 93.3828 6.40625 95.8281 6.40625C98.2734 6.40625 99.8359 8.08594 99.8359 10.7578C99.8359 13.4297 98.2812 15.1016 95.8281 15.1016ZM95.8281 13.6953C97.2656 13.6953 98.1172 12.6094 98.1172 10.7578C98.1172 8.90625 97.2656 7.8125 95.8281 7.8125C94.3906 7.8125 93.5312 8.91406 93.5312 10.7578C93.5312 12.6094 94.3906 13.6953 95.8281 13.6953ZM101.195 15V6.51562H102.812V7.95312H102.844C103.234 7 104.148 6.42188 105.258 6.42188C106.438 6.42188 107.289 7.01562 107.633 8.07031H107.672C108.117 7.04688 109.117 6.42188 110.328 6.42188C112 6.42188 113.094 7.52344 113.094 9.21875V15H111.406V9.625C111.406 8.51562 110.805 7.875 109.75 7.875C108.711 7.875 107.977 8.64844 107.977 9.73438V15H106.312V9.48438C106.312 8.5 105.68 7.875 104.688 7.875C103.641 7.875 102.891 8.6875 102.891 9.79688V15H101.195ZM118.32 7.78906C117.102 7.78906 116.219 8.67969 116.125 9.98438H120.43C120.391 8.66406 119.555 7.78906 118.32 7.78906ZM120.422 12.5156H122.039C121.797 14.0391 120.305 15.1016 118.398 15.1016C115.938 15.1016 114.406 13.4453 114.406 10.7891C114.406 8.13281 115.953 6.40625 118.328 6.40625C120.656 6.40625 122.125 8.02344 122.125 10.5938V11.1875H116.117V11.2891C116.117 12.7578 117.039 13.7266 118.43 13.7266C119.414 13.7266 120.188 13.2578 120.422 12.5156ZM123.492 15V6.51562H125.109V7.94531H125.141C125.656 6.94531 126.508 6.42188 127.82 6.42188C129.695 6.42188 130.766 7.60938 130.766 9.5625V15H129.07V9.88281C129.07 8.59375 128.477 7.875 127.234 7.875C125.953 7.875 125.188 8.76562 125.188 10.1016V15H123.492Z" fill="#494747"/>
<path d="M185.383 15L184.352 11.9531H180.055L179.023 15H177.203L181.273 3.72656H183.164L187.234 15H185.383ZM182.18 5.60156L180.5 10.5469H183.906L182.227 5.60156H182.18ZM195.336 9.41406H193.719C193.562 8.51562 192.859 7.83594 191.695 7.83594C190.328 7.83594 189.422 8.97656 189.422 10.7578C189.422 12.5859 190.344 13.6797 191.703 13.6797C192.805 13.6797 193.531 13.1406 193.734 12.1484H195.352C195.156 13.9219 193.734 15.1016 191.695 15.1016C189.289 15.1016 187.703 13.4453 187.703 10.7578C187.703 8.11719 189.281 6.40625 191.68 6.40625C193.844 6.40625 195.188 7.78125 195.336 9.41406ZM203.852 9.41406H202.234C202.078 8.51562 201.375 7.83594 200.211 7.83594C198.844 7.83594 197.938 8.97656 197.938 10.7578C197.938 12.5859 198.859 13.6797 200.219 13.6797C201.32 13.6797 202.047 13.1406 202.25 12.1484H203.867C203.672 13.9219 202.25 15.1016 200.211 15.1016C197.805 15.1016 196.219 13.4453 196.219 10.7578C196.219 8.11719 197.797 6.40625 200.195 6.40625C202.359 6.40625 203.703 7.78125 203.852 9.41406ZM208.648 7.78906C207.43 7.78906 206.547 8.67969 206.453 9.98438H210.758C210.719 8.66406 209.883 7.78906 208.648 7.78906ZM210.75 12.5156H212.367C212.125 14.0391 210.633 15.1016 208.727 15.1016C206.266 15.1016 204.734 13.4453 204.734 10.7891C204.734 8.13281 206.281 6.40625 208.656 6.40625C210.984 6.40625 212.453 8.02344 212.453 10.5938V11.1875H206.445V11.2891C206.445 12.7578 207.367 13.7266 208.758 13.7266C209.742 13.7266 210.516 13.2578 210.75 12.5156ZM213.68 8.92969C213.68 7.4375 215.016 6.41406 216.969 6.41406C218.828 6.41406 220.172 7.46094 220.211 8.9375H218.617C218.547 8.1875 217.898 7.71875 216.93 7.71875C215.969 7.71875 215.328 8.16406 215.328 8.83594C215.328 9.35156 215.75 9.70312 216.648 9.92188L218.055 10.2578C219.766 10.6719 220.398 11.2891 220.398 12.5391C220.398 14.0547 218.961 15.1016 216.906 15.1016C214.93 15.1016 213.578 14.0781 213.453 12.5469H215.125C215.258 13.3594 215.914 13.8047 216.992 13.8047C218.047 13.8047 218.711 13.3672 218.711 12.6797C218.711 12.1406 218.375 11.8594 217.484 11.6328L215.969 11.2578C214.438 10.8828 213.68 10.1016 213.68 8.92969ZM221.633 8.92969C221.633 7.4375 222.969 6.41406 224.922 6.41406C226.781 6.41406 228.125 7.46094 228.164 8.9375H226.57C226.5 8.1875 225.852 7.71875 224.883 7.71875C223.922 7.71875 223.281 8.16406 223.281 8.83594C223.281 9.35156 223.703 9.70312 224.602 9.92188L226.008 10.2578C227.719 10.6719 228.352 11.2891 228.352 12.5391C228.352 14.0547 226.914 15.1016 224.859 15.1016C222.883 15.1016 221.531 14.0781 221.406 12.5469H223.078C223.211 13.3594 223.867 13.8047 224.945 13.8047C226 13.8047 226.664 13.3672 226.664 12.6797C226.664 12.1406 226.328 11.8594 225.438 11.6328L223.922 11.2578C222.391 10.8828 221.633 10.1016 221.633 8.92969ZM233.359 15.1016C230.906 15.1016 229.344 13.4297 229.344 10.7578C229.344 8.09375 230.914 6.40625 233.359 6.40625C235.805 6.40625 237.367 8.08594 237.367 10.7578C237.367 13.4297 235.812 15.1016 233.359 15.1016ZM233.359 13.6953C234.797 13.6953 235.648 12.6094 235.648 10.7578C235.648 8.90625 234.797 7.8125 233.359 7.8125C231.922 7.8125 231.062 8.91406 231.062 10.7578C231.062 12.6094 231.922 13.6953 233.359 13.6953ZM238.727 15V6.51562H240.344V7.94531H240.375C240.641 7 241.422 6.42969 242.422 6.42969C242.672 6.42969 242.883 6.45312 243.016 6.48438V8.07031C242.875 8.01562 242.578 7.96875 242.242 7.96875C241.125 7.96875 240.422 8.74219 240.422 9.9375V15H238.727ZM244.164 15V6.51562H245.859V15H244.164ZM245.016 5.30469C244.469 5.30469 244.023 4.86719 244.023 4.32812C244.023 3.77344 244.469 3.35156 245.016 3.35156C245.562 3.35156 246.008 3.77344 246.008 4.32812C246.008 4.86719 245.562 5.30469 245.016 5.30469ZM251.195 7.78906C249.977 7.78906 249.094 8.67969 249 9.98438H253.305C253.266 8.66406 252.43 7.78906 251.195 7.78906ZM253.297 12.5156H254.914C254.672 14.0391 253.18 15.1016 251.273 15.1016C248.812 15.1016 247.281 13.4453 247.281 10.7891C247.281 8.13281 248.828 6.40625 251.203 6.40625C253.531 6.40625 255 8.02344 255 10.5938V11.1875H248.992V11.2891C248.992 12.7578 249.914 13.7266 251.305 13.7266C252.289 13.7266 253.062 13.2578 253.297 12.5156ZM256.227 8.92969C256.227 7.4375 257.562 6.41406 259.516 6.41406C261.375 6.41406 262.719 7.46094 262.758 8.9375H261.164C261.094 8.1875 260.445 7.71875 259.477 7.71875C258.516 7.71875 257.875 8.16406 257.875 8.83594C257.875 9.35156 258.297 9.70312 259.195 9.92188L260.602 10.2578C262.312 10.6719 262.945 11.2891 262.945 12.5391C262.945 14.0547 261.508 15.1016 259.453 15.1016C257.477 15.1016 256.125 14.0781 256 12.5469H257.672C257.805 13.3594 258.461 13.8047 259.539 13.8047C260.594 13.8047 261.258 13.3672 261.258 12.6797C261.258 12.1406 260.922 11.8594 260.031 11.6328L258.516 11.2578C256.984 10.8828 256.227 10.1016 256.227 8.92969Z" fill="#494747"/>
<path d="M309.539 11.8594H311.266C311.391 12.9766 312.477 13.7109 313.961 13.7109C315.383 13.7109 316.406 12.9766 316.406 11.9688C316.406 11.0938 315.789 10.5703 314.328 10.2109L312.867 9.85938C310.797 9.35938 309.836 8.39062 309.836 6.82031C309.836 4.875 311.531 3.53906 313.938 3.53906C316.32 3.53906 317.953 4.875 318.008 6.82031H316.305C316.203 5.69531 315.273 5.01562 313.914 5.01562C312.555 5.01562 311.625 5.70312 311.625 6.70312C311.625 7.5 312.219 7.96875 313.672 8.32812L314.914 8.63281C317.227 9.17969 318.188 10.1094 318.188 11.7578C318.188 13.8672 316.508 15.1875 313.836 15.1875C311.336 15.1875 309.648 13.8984 309.539 11.8594ZM326.82 6.51562V15H325.203V13.5469H325.172C324.68 14.5547 323.82 15.0938 322.523 15.0938C320.672 15.0938 319.547 13.8984 319.547 11.9531V6.51562H321.242V11.6328C321.242 12.9375 321.859 13.6328 323.086 13.6328C324.352 13.6328 325.125 12.75 325.125 11.4062V6.51562H326.82ZM328.555 15V6.51562H330.172V7.95312H330.203C330.594 7 331.508 6.42188 332.617 6.42188C333.797 6.42188 334.648 7.01562 334.992 8.07031H335.031C335.477 7.04688 336.477 6.42188 337.688 6.42188C339.359 6.42188 340.453 7.52344 340.453 9.21875V15H338.766V9.625C338.766 8.51562 338.164 7.875 337.109 7.875C336.07 7.875 335.336 8.64844 335.336 9.73438V15H333.672V9.48438C333.672 8.5 333.039 7.875 332.047 7.875C331 7.875 330.25 8.6875 330.25 9.79688V15H328.555ZM342.148 15V6.51562H343.766V7.95312H343.797C344.188 7 345.102 6.42188 346.211 6.42188C347.391 6.42188 348.242 7.01562 348.586 8.07031H348.625C349.07 7.04688 350.07 6.42188 351.281 6.42188C352.953 6.42188 354.047 7.52344 354.047 9.21875V15H352.359V9.625C352.359 8.51562 351.758 7.875 350.703 7.875C349.664 7.875 348.93 8.64844 348.93 9.73438V15H347.266V9.48438C347.266 8.5 346.633 7.875 345.641 7.875C344.594 7.875 343.844 8.6875 343.844 9.79688V15H342.148ZM359.273 7.78906C358.055 7.78906 357.172 8.67969 357.078 9.98438H361.383C361.344 8.66406 360.508 7.78906 359.273 7.78906ZM361.375 12.5156H362.992C362.75 14.0391 361.258 15.1016 359.352 15.1016C356.891 15.1016 355.359 13.4453 355.359 10.7891C355.359 8.13281 356.906 6.40625 359.281 6.40625C361.609 6.40625 363.078 8.02344 363.078 10.5938V11.1875H357.07V11.2891C357.07 12.7578 357.992 13.7266 359.383 13.7266C360.367 13.7266 361.141 13.2578 361.375 12.5156ZM364.445 15V6.51562H366.062V7.94531H366.094C366.359 7 367.141 6.42969 368.141 6.42969C368.391 6.42969 368.602 6.45312 368.734 6.48438V8.07031C368.594 8.01562 368.297 7.96875 367.961 7.96875C366.844 7.96875 366.141 8.74219 366.141 9.9375V15H364.445ZM373.18 11.8594H374.906C375.031 12.9766 376.117 13.7109 377.602 13.7109C379.023 13.7109 380.047 12.9766 380.047 11.9688C380.047 11.0938 379.43 10.5703 377.969 10.2109L376.508 9.85938C374.438 9.35938 373.477 8.39062 373.477 6.82031C373.477 4.875 375.172 3.53906 377.578 3.53906C379.961 3.53906 381.594 4.875 381.648 6.82031H379.945C379.844 5.69531 378.914 5.01562 377.555 5.01562C376.195 5.01562 375.266 5.70312 375.266 6.70312C375.266 7.5 375.859 7.96875 377.312 8.32812L378.555 8.63281C380.867 9.17969 381.828 10.1094 381.828 11.7578C381.828 13.8672 380.148 15.1875 377.477 15.1875C374.977 15.1875 373.289 13.8984 373.18 11.8594ZM386.172 13.7344C387.43 13.7344 388.383 12.9297 388.383 11.8125V11.1484L386.32 11.2891C385.164 11.3594 384.562 11.7891 384.562 12.5391C384.562 13.2656 385.195 13.7344 386.172 13.7344ZM385.719 15.0859C384.023 15.0859 382.852 14.0859 382.852 12.5703C382.852 11.0859 384 10.2266 386.094 10.0938L388.383 9.96094V9.30469C388.383 8.33594 387.734 7.80469 386.602 7.80469C385.68 7.80469 385.008 8.28125 384.859 9.01562H383.273C383.32 7.51562 384.742 6.40625 386.648 6.40625C388.719 6.40625 390.055 7.5 390.055 9.17969V15H388.438V13.5859H388.398C387.93 14.5078 386.875 15.0859 385.719 15.0859ZM391.828 15V3.21875H393.523V15H391.828ZM398.867 7.78906C397.648 7.78906 396.766 8.67969 396.672 9.98438H400.977C400.938 8.66406 400.102 7.78906 398.867 7.78906ZM400.969 12.5156H402.586C402.344 14.0391 400.852 15.1016 398.945 15.1016C396.484 15.1016 394.953 13.4453 394.953 10.7891C394.953 8.13281 396.5 6.40625 398.875 6.40625C401.203 6.40625 402.672 8.02344 402.672 10.5938V11.1875H396.664V11.2891C396.664 12.7578 397.586 13.7266 398.977 13.7266C399.961 13.7266 400.734 13.2578 400.969 12.5156Z" fill="#494747"/>
<path d="M451.789 15H450.039V3.72656H451.789V9.09375H451.859L456.57 3.72656H458.648L454.18 8.71875L459.023 15H456.852L452.945 9.92188L451.789 11.2422V15ZM460.039 15V6.51562H461.734V15H460.039ZM460.891 5.30469C460.344 5.30469 459.898 4.86719 459.898 4.32812C459.898 3.77344 460.344 3.35156 460.891 3.35156C461.438 3.35156 461.883 3.77344 461.883 4.32812C461.883 4.86719 461.438 5.30469 460.891 5.30469ZM466.734 15.0859C464.609 15.0859 463.156 13.375 463.156 10.75C463.156 8.14062 464.609 6.42969 466.719 6.42969C467.938 6.42969 468.906 6.98438 469.391 7.92188H469.43V3.21875H471.117V15H469.477V13.5625H469.445C468.945 14.5234 467.977 15.0859 466.734 15.0859ZM467.164 7.86719C465.797 7.86719 464.891 9.00781 464.891 10.7578C464.891 12.5156 465.789 13.6484 467.164 13.6484C468.523 13.6484 469.438 12.4922 469.438 10.7578C469.438 9.03125 468.523 7.86719 467.164 7.86719ZM472.773 8.92969C472.773 7.4375 474.109 6.41406 476.062 6.41406C477.922 6.41406 479.266 7.46094 479.305 8.9375H477.711C477.641 8.1875 476.992 7.71875 476.023 7.71875C475.062 7.71875 474.422 8.16406 474.422 8.83594C474.422 9.35156 474.844 9.70312 475.742 9.92188L477.148 10.2578C478.859 10.6719 479.492 11.2891 479.492 12.5391C479.492 14.0547 478.055 15.1016 476 15.1016C474.023 15.1016 472.672 14.0781 472.547 12.5469H474.219C474.352 13.3594 475.008 13.8047 476.086 13.8047C477.141 13.8047 477.805 13.3672 477.805 12.6797C477.805 12.1406 477.469 11.8594 476.578 11.6328L475.062 11.2578C473.531 10.8828 472.773 10.1016 472.773 8.92969Z" fill="#494747"/>
</svg>
