<svg width="88" height="79" viewBox="0 0 88 79" fill="none" xmlns="http://www.w3.org/2000/svg">
<path d="M2.19727 26.5879C2.19727 20.875 6.78955 16.7002 13.0957 16.7002C19.1382 16.7002 23.6426 20.5454 23.6426 25.5771C23.6426 29.2686 21.665 32.0151 17.0288 36.7612L9.09668 44.7373V44.8472H24.1479V49H2.46094V45.6602L13.9087 33.9927C17.7759 29.9717 18.7866 28.3018 18.7866 25.8188C18.7866 23.0063 16.2378 20.7651 12.9419 20.7651C9.47021 20.7651 6.85547 23.27 6.85547 26.5659V26.6318H2.19727V26.5879ZM39.8804 49.5933C33.5522 49.5933 28.916 45.7261 28.6304 40.189H33.3325C33.6841 43.3311 36.3867 45.4844 39.9243 45.4844C43.9233 45.4844 46.6919 42.6938 46.6919 38.7168C46.6919 34.7397 43.9233 31.8833 39.9683 31.8833C37.2217 31.8833 34.8486 33.1357 33.6182 35.2231H29.1138L30.7837 17.2935H49.6582V21.4463H34.7388L33.8599 31.1802H33.9697C35.354 29.1807 37.9468 27.9722 41.0449 27.9722C47.1313 27.9722 51.5039 32.4326 51.5039 38.585C51.5039 45.0889 46.7139 49.5933 39.8804 49.5933ZM86.001 41.3755C86.001 46.2534 83.3203 49.3955 79.1675 49.3955C74.9927 49.3955 72.29 46.2534 72.29 41.3755C72.29 36.5195 74.9927 33.3774 79.1675 33.3774C83.3423 33.3774 86.001 36.4976 86.001 41.3755ZM79.1675 46.2974C80.9033 46.2974 81.98 44.4077 81.98 41.3755C81.98 38.2993 80.9473 36.4976 79.1675 36.4976C77.4097 36.4976 76.311 38.3652 76.311 41.3755C76.311 44.3857 77.4097 46.2974 79.1675 46.2974ZM67.8076 24.7202C67.8076 29.5981 65.127 32.7402 60.9741 32.7402C56.7993 32.7402 54.0967 29.5981 54.0967 24.7202C54.0967 19.8643 56.7993 16.7222 60.9741 16.7222C65.1489 16.7222 67.8076 19.8423 67.8076 24.7202ZM60.9741 29.6421C62.71 29.6421 63.7866 27.7524 63.7866 24.7202C63.7866 21.644 62.7539 19.8423 60.9741 19.8423C59.2163 19.8423 58.1177 21.71 58.1177 24.7202C58.1177 27.7305 59.2163 29.6421 60.9741 29.6421ZM60.6226 49H56.1401L79.3213 17.2935H83.7598L60.6226 49ZM4.43555 60.4043C6.86719 60.4043 8.39648 62.0859 8.39648 64.7754C8.39648 67.4648 6.86719 69.1406 4.43555 69.1406C1.99805 69.1406 0.474609 67.4648 0.474609 64.7754C0.474609 62.0859 1.99805 60.4043 4.43555 60.4043ZM4.43555 61.5586C2.83008 61.5586 1.81641 62.8008 1.81641 64.7754C1.81641 66.7441 2.83008 67.9863 4.43555 67.9863C6.04102 67.9863 7.04883 66.7441 7.04883 64.7754C7.04883 62.8008 6.04102 61.5586 4.43555 61.5586ZM9.90234 69V63.6387H9.02344V62.6367H9.90234V62.0508C9.90234 60.8613 10.4414 60.3398 11.7305 60.3398C11.959 60.3398 12.1699 60.3633 12.375 60.3984V61.3652C12.2461 61.3359 12.0703 61.3184 11.9004 61.3184C11.3789 61.3184 11.1621 61.5469 11.1562 62.0918V62.6367H12.3809V63.6387H11.168V69H9.90234ZM13.8164 69V63.6387H12.9375V62.6367H13.8164V62.0508C13.8164 60.8613 14.3555 60.3398 15.6445 60.3398C15.873 60.3398 16.084 60.3633 16.2891 60.3984V61.3652C16.1602 61.3359 15.9844 61.3184 15.8145 61.3184C15.293 61.3184 15.0762 61.5469 15.0703 62.0918V62.6367H16.2949V63.6387H15.082V69H13.8164ZM21.5215 69H20.2441L20.2441 60.5449H21.4336L25.8164 66.7793H25.8633L25.8633 60.5449H27.1406L27.1406 69H25.957L21.5742 62.7715H21.5215L21.5215 69ZM31.2246 63.5918C30.3105 63.5918 29.6484 64.2598 29.5781 65.2383H32.8066C32.7773 64.248 32.1504 63.5918 31.2246 63.5918ZM32.8008 67.1367H34.0137C33.832 68.2793 32.7129 69.0762 31.2832 69.0762C29.4375 69.0762 28.2891 67.834 28.2891 65.8418C28.2891 63.8496 29.4492 62.5547 31.2305 62.5547C32.9766 62.5547 34.0781 63.7676 34.0781 65.6953V66.1406H29.5723V66.2168C29.5723 67.3184 30.2637 68.0449 31.3066 68.0449C32.0449 68.0449 32.625 67.6934 32.8008 67.1367ZM43.459 62.6367L41.707 69H40.3945L39.041 64.207H39.0117L37.6699 69H36.3633L34.6055 62.6367H35.8711L37.0547 67.6758H37.0781L38.4258 62.6367H39.6445L40.998 67.6758H41.0215L42.2051 62.6367H43.459ZM52.6699 69L51.8965 66.7148H48.6738L47.9004 69H46.5352L49.5879 60.5449H51.0059L54.0586 69H52.6699ZM50.2676 61.9512L49.0078 65.6602H51.5625L50.3027 61.9512H50.2676ZM54.8613 69V62.6367H56.0742V63.709H56.0977C56.2969 63 56.8828 62.5723 57.6328 62.5723C57.8203 62.5723 57.9785 62.5898 58.0781 62.6133V63.8027C57.9727 63.7617 57.75 63.7266 57.498 63.7266C56.6602 63.7266 56.1328 64.3066 56.1328 65.2031V69H54.8613ZM58.8926 69V62.6367H60.1055V63.709H60.1289C60.3281 63 60.9141 62.5723 61.6641 62.5723C61.8516 62.5723 62.0098 62.5898 62.1094 62.6133V63.8027C62.0039 63.7617 61.7812 63.7266 61.5293 63.7266C60.6914 63.7266 60.1641 64.3066 60.1641 65.2031V69H58.8926ZM62.9707 69V62.6367H64.2422V69H62.9707ZM63.6094 61.7285C63.1992 61.7285 62.8652 61.4004 62.8652 60.9961C62.8652 60.5801 63.1992 60.2637 63.6094 60.2637C64.0195 60.2637 64.3535 60.5801 64.3535 60.9961C64.3535 61.4004 64.0195 61.7285 63.6094 61.7285ZM70.998 62.6367L68.707 69H67.3535L65.0566 62.6367H66.3984L68.0215 67.7461H68.0508L69.6797 62.6367H70.998ZM74.2324 63.5918C73.3184 63.5918 72.6562 64.2598 72.5859 65.2383H75.8145C75.7852 64.248 75.1582 63.5918 74.2324 63.5918ZM75.8086 67.1367H77.0215C76.8398 68.2793 75.7207 69.0762 74.291 69.0762C72.4453 69.0762 71.2969 67.834 71.2969 65.8418C71.2969 63.8496 72.457 62.5547 74.2383 62.5547C75.9844 62.5547 77.0859 63.7676 77.0859 65.6953V66.1406H72.5801V66.2168C72.5801 67.3184 73.2715 68.0449 74.3145 68.0449C75.0527 68.0449 75.6328 67.6934 75.8086 67.1367ZM78.1641 69V60.1641H79.4355V69H78.1641ZM80.6895 64.4473C80.6895 63.3281 81.6914 62.5605 83.1562 62.5605C84.5508 62.5605 85.5586 63.3457 85.5879 64.4531H84.3926C84.3398 63.8906 83.8535 63.5391 83.127 63.5391C82.4062 63.5391 81.9258 63.873 81.9258 64.377C81.9258 64.7637 82.2422 65.0273 82.916 65.1914L83.9707 65.4434C85.2539 65.7539 85.7285 66.2168 85.7285 67.1543C85.7285 68.291 84.6504 69.0762 83.1094 69.0762C81.627 69.0762 80.6133 68.3086 80.5195 67.1602H81.7734C81.873 67.7695 82.3652 68.1035 83.1738 68.1035C83.9648 68.1035 84.4629 67.7754 84.4629 67.2598C84.4629 66.8555 84.2109 66.6445 83.543 66.4746L82.4062 66.1934C81.2578 65.9121 80.6895 65.3262 80.6895 64.4473Z" fill="#181818"/>
</svg>
