<svg width="252" height="79" viewBox="0 0 252 79" fill="none" xmlns="http://www.w3.org/2000/svg">
<g filter="url(#filter0_d_5_992)">
<rect x="20" y="16" width="212" height="39" rx="6" fill="white"/>
</g>
<path d="M217 39L221 43" stroke="#494747" stroke-width="1.5" stroke-linecap="round" stroke-linejoin="round"/>
<path d="M205 33.8571C205 37.6442 208.07 40.7143 211.857 40.7143C213.754 40.7143 215.471 39.9441 216.712 38.6994C217.949 37.4591 218.714 35.7474 218.714 33.8571C218.714 30.07 215.644 27 211.857 27C208.07 27 205 30.07 205 33.8571Z" stroke="#494747" stroke-width="1.5" stroke-linecap="round" stroke-linejoin="round"/>
<path d="M31.4443 37.3203H32.3809C32.4834 38.5029 33.5977 39.3096 35.1426 39.3096C36.6191 39.3096 37.6787 38.5029 37.6787 37.3955C37.6787 36.4727 37.043 35.9258 35.5801 35.5566L34.3564 35.2422C32.5312 34.7773 31.7178 34.0049 31.7178 32.7061C31.7178 31.1133 33.1533 29.9785 35.0947 29.9785C37.0156 29.9785 38.4238 31.1133 38.4785 32.6787H37.542C37.4531 31.5645 36.4688 30.8262 35.0674 30.8262C33.7002 30.8262 32.6885 31.585 32.6885 32.6719C32.6885 33.5195 33.3037 34.0186 34.7529 34.3877L35.8193 34.6611C37.8018 35.1602 38.6357 35.9189 38.6357 37.293C38.6357 39.0225 37.2412 40.1572 35.0605 40.1572C32.9961 40.1572 31.5469 39.0156 31.4443 37.3203ZM42.9014 33.3555C41.582 33.3555 40.6523 34.3398 40.5703 35.8027H45.1504C45.1367 34.3398 44.2344 33.3555 42.9014 33.3555ZM45.1025 37.915H45.998C45.7793 39.1729 44.5693 40.082 42.9697 40.082C40.9326 40.082 39.6338 38.6533 39.6338 36.3359C39.6338 34.0527 40.9326 32.5557 42.915 32.5557C44.8496 32.5557 46.0938 33.957 46.0938 36.1445V36.541H40.5703V36.5889C40.5703 38.2568 41.5273 39.2822 42.9902 39.2822C44.0977 39.2822 44.8838 38.7217 45.1025 37.915ZM49.71 39.2891C51.0293 39.2891 52.0342 38.3936 52.0342 37.2314V36.418L49.8809 36.5684C48.6436 36.6504 47.9873 37.1289 47.9873 37.9561C47.9873 38.749 48.6846 39.2891 49.71 39.2891ZM49.5322 40.082C48.0625 40.082 47.0645 39.2207 47.0645 37.9492C47.0645 36.6914 48.0078 35.96 49.7715 35.8369L52.0342 35.6865V35.0576C52.0342 33.9844 51.3574 33.3623 50.168 33.3623C49.1426 33.3623 48.4248 33.8887 48.2607 34.7637H47.3926C47.4678 33.4717 48.6299 32.5557 50.1748 32.5557C51.8633 32.5557 52.9365 33.499 52.9365 34.9824V40H52.0752V38.5918H52.0547C51.6582 39.4873 50.6602 40.082 49.5322 40.082ZM54.5225 40V32.6377H55.3701V33.9434H55.3975C55.6504 33.0684 56.3477 32.5557 57.2637 32.5557C57.5029 32.5557 57.7217 32.5967 57.8379 32.6309V33.5264C57.7148 33.4717 57.4551 33.4238 57.1406 33.4238C56.0947 33.4238 55.4248 34.2441 55.4248 35.4336V40H54.5225ZM64.4004 34.9551H63.5049C63.3271 34.0527 62.5547 33.3623 61.3789 33.3623C59.9365 33.3623 58.9863 34.5244 58.9863 36.3154C58.9863 38.1406 59.9434 39.2686 61.3857 39.2686C62.5137 39.2686 63.2998 38.6943 63.5117 37.7305H64.4072C64.1953 39.1182 63.0127 40.082 61.3857 40.082C59.3828 40.082 58.0635 38.6396 58.0635 36.3154C58.0635 34.0391 59.376 32.5557 61.3721 32.5557C63.0947 32.5557 64.2227 33.6562 64.4004 34.9551ZM65.6514 40V29.7051H66.5537V34.0117H66.5742C66.9844 33.0957 67.8252 32.5557 69.0078 32.5557C70.6211 32.5557 71.6396 33.6357 71.6396 35.2832V40H70.7373V35.4268C70.7373 34.1416 70.0127 33.3623 68.7549 33.3623C67.4219 33.3623 66.5537 34.3057 66.5537 35.707V40H65.6514Z" fill="#181818"/>
<path d="M31.4443 37.3203H32.3809C32.4834 38.5029 33.5977 39.3096 35.1426 39.3096C36.6191 39.3096 37.6787 38.5029 37.6787 37.3955C37.6787 36.4727 37.043 35.9258 35.5801 35.5566L34.3564 35.2422C32.5312 34.7773 31.7178 34.0049 31.7178 32.7061C31.7178 31.1133 33.1533 29.9785 35.0947 29.9785C37.0156 29.9785 38.4238 31.1133 38.4785 32.6787H37.542C37.4531 31.5645 36.4688 30.8262 35.0674 30.8262C33.7002 30.8262 32.6885 31.585 32.6885 32.6719C32.6885 33.5195 33.3037 34.0186 34.7529 34.3877L35.8193 34.6611C37.8018 35.1602 38.6357 35.9189 38.6357 37.293C38.6357 39.0225 37.2412 40.1572 35.0605 40.1572C32.9961 40.1572 31.5469 39.0156 31.4443 37.3203ZM42.9014 33.3555C41.582 33.3555 40.6523 34.3398 40.5703 35.8027H45.1504C45.1367 34.3398 44.2344 33.3555 42.9014 33.3555ZM45.1025 37.915H45.998C45.7793 39.1729 44.5693 40.082 42.9697 40.082C40.9326 40.082 39.6338 38.6533 39.6338 36.3359C39.6338 34.0527 40.9326 32.5557 42.915 32.5557C44.8496 32.5557 46.0938 33.957 46.0938 36.1445V36.541H40.5703V36.5889C40.5703 38.2568 41.5273 39.2822 42.9902 39.2822C44.0977 39.2822 44.8838 38.7217 45.1025 37.915ZM49.71 39.2891C51.0293 39.2891 52.0342 38.3936 52.0342 37.2314V36.418L49.8809 36.5684C48.6436 36.6504 47.9873 37.1289 47.9873 37.9561C47.9873 38.749 48.6846 39.2891 49.71 39.2891ZM49.5322 40.082C48.0625 40.082 47.0645 39.2207 47.0645 37.9492C47.0645 36.6914 48.0078 35.96 49.7715 35.8369L52.0342 35.6865V35.0576C52.0342 33.9844 51.3574 33.3623 50.168 33.3623C49.1426 33.3623 48.4248 33.8887 48.2607 34.7637H47.3926C47.4678 33.4717 48.6299 32.5557 50.1748 32.5557C51.8633 32.5557 52.9365 33.499 52.9365 34.9824V40H52.0752V38.5918H52.0547C51.6582 39.4873 50.6602 40.082 49.5322 40.082ZM54.5225 40V32.6377H55.3701V33.9434H55.3975C55.6504 33.0684 56.3477 32.5557 57.2637 32.5557C57.5029 32.5557 57.7217 32.5967 57.8379 32.6309V33.5264C57.7148 33.4717 57.4551 33.4238 57.1406 33.4238C56.0947 33.4238 55.4248 34.2441 55.4248 35.4336V40H54.5225ZM64.4004 34.9551H63.5049C63.3271 34.0527 62.5547 33.3623 61.3789 33.3623C59.9365 33.3623 58.9863 34.5244 58.9863 36.3154C58.9863 38.1406 59.9434 39.2686 61.3857 39.2686C62.5137 39.2686 63.2998 38.6943 63.5117 37.7305H64.4072C64.1953 39.1182 63.0127 40.082 61.3857 40.082C59.3828 40.082 58.0635 38.6396 58.0635 36.3154C58.0635 34.0391 59.376 32.5557 61.3721 32.5557C63.0947 32.5557 64.2227 33.6562 64.4004 34.9551ZM65.6514 40V29.7051H66.5537V34.0117H66.5742C66.9844 33.0957 67.8252 32.5557 69.0078 32.5557C70.6211 32.5557 71.6396 33.6357 71.6396 35.2832V40H70.7373V35.4268C70.7373 34.1416 70.0127 33.3623 68.7549 33.3623C67.4219 33.3623 66.5537 34.3057 66.5537 35.707V40H65.6514Z" fill="#494747"/>
<defs>
<filter id="filter0_d_5_992" x="0" y="0" width="252" height="79" filterUnits="userSpaceOnUse" color-interpolation-filters="sRGB">
<feFlood flood-opacity="0" result="BackgroundImageFix"/>
<feColorMatrix in="SourceAlpha" type="matrix" values="0 0 0 0 0 0 0 0 0 0 0 0 0 0 0 0 0 0 127 0" result="hardAlpha"/>
<feOffset dy="4"/>
<feGaussianBlur stdDeviation="10"/>
<feComposite in2="hardAlpha" operator="out"/>
<feColorMatrix type="matrix" values="0 0 0 0 0 0 0 0 0 0 0 0 0 0 0 0 0 0 0.1 0"/>
<feBlend mode="normal" in2="BackgroundImageFix" result="effect1_dropShadow_5_992"/>
<feBlend mode="normal" in="SourceGraphic" in2="effect1_dropShadow_5_992" result="shape"/>
</filter>
</defs>
</svg>
