<svg width="52" height="209" viewBox="0 0 52 209" fill="none" xmlns="http://www.w3.org/2000/svg">
<rect x="49" width="3" height="209" rx="1.5" fill="#FCBD01" fill-opacity="0.2"/>
<rect x="49" width="3" height="47" rx="1.5" fill="#FCBD01"/>
<path d="M9.3457 34.3955C4.27734 34.3955 1.27441 30.1475 1.27441 23.4092C1.27441 16.7148 4.30664 12.4668 9.3457 12.4668C14.3994 12.4668 17.3877 16.7002 17.3877 23.3945C17.3877 30.1328 14.4141 34.3955 9.3457 34.3955ZM9.3457 31.6416C12.3633 31.6416 14.0771 28.5215 14.0771 23.4092C14.0771 18.3701 12.334 15.2207 9.3457 15.2207C6.35742 15.2207 4.59961 18.3848 4.59961 23.4092C4.59961 28.5068 6.32812 31.6416 9.3457 31.6416ZM25.4443 34V16.1143H25.3711L19.8486 20.04V16.8174L25.415 12.8623H28.6523V34H25.4443Z" fill="#FCBD01"/>
</svg>
